# xmcd
#
# Track frame offsets:
#      150
#      17949
#      35224
#      49991
#      69415
#      88981
#      109633
#      125151
#      147115
#      160538
#      179352
#      195174
# 
# Disc length: 2855 seconds
#
# Revision: 1
# Processed by: cddbd v1.5.1PL0 Copyright (c) Steve Scherf et al.
#
# Submitted via: FreeRIP 1.20
#
DISCID=a70b250c
DTITLE=Big Kenny - Live a Little
DYEAR=1900
DGENRE=Country
TTITLE0=Candy Colored Glasses
TTITLE1=Under the Sun
TTITLE2=Cheater's Lament
TTITLE3=Thinkin' Too Much
TTITLE4=Long Long Way
TTITLE5=Think About It
TTITLE6=Trip
TTITLE7=Rather Be
TTITLE8=Last to Know
TTITLE9=Pray for You
TTITLE10=Outta Site
TTITLE11=Rumba
EXTD=
EXTT0=
EXTT1=
EXTT2=
EXTT3=
EXTT4=
EXTT5=
EXTT6=
EXTT7=
EXTT8=
EXTT9=
EXTT10=
EXTT11=
PLAYORDER=
